<?xml version="1.0" standalone="no"?>
<!DOCTYPE svg PUBLIC "-//W3C//DTD SVG 20010904//EN"
 "http://www.w3.org/TR/2001/REC-SVG-20010904/DTD/svg10.dtd">
<svg version="1.0" xmlns="http://www.w3.org/2000/svg"
 width="595.000000pt" height="429.000000pt" viewBox="0 0 595.000000 429.000000"
 preserveAspectRatio="xMidYMid meet">
<metadata>
Created by potrace 1.15, written by Peter Selinger 2001-2017
</metadata>
<g transform="translate(0.000000,429.000000) scale(0.100000,-0.100000)"
fill="#000000" stroke="none">
<path d="M2505 4076 c-205 -37 -601 -135 -803 -201 l-109 -35 -66 44 c-98 66
-165 88 -278 94 -168 8 -281 -41 -420 -178 -106 -106 -168 -221 -203 -381 -3
-15 -21 -38 -40 -52 -81 -62 -169 -209 -231 -388 -121 -349 -153 -583 -162
-1214 -13 -925 72 -1313 315 -1432 50 -24 69 -28 147 -28 74 0 97 4 133 23
100 53 171 162 236 362 52 160 125 446 157 610 12 63 26 120 31 125 14 15 101
-87 142 -165 18 -36 43 -94 56 -130 34 -100 68 -166 119 -229 100 -125 228
-210 371 -248 88 -23 254 -22 340 1 217 59 409 240 476 449 34 108 42 252 20
357 -33 158 -153 333 -289 423 -92 61 -180 179 -165 219 8 19 87 45 198 65
139 26 791 26 927 0 85 -16 203 -52 203 -63 0 -3 -7 -20 -15 -40 -27 -64 -76
-121 -153 -177 -259 -185 -361 -454 -285 -752 56 -223 258 -420 493 -481 77
-20 229 -23 315 -5 212 44 412 223 494 442 53 142 99 228 153 285 28 30 54 54
58 54 4 0 15 -42 24 -92 25 -138 109 -475 157 -623 52 -165 99 -255 169 -326
71 -72 132 -94 233 -86 216 18 347 209 402 585 58 394 46 1390 -21 1705 -80
381 -187 633 -323 760 -41 39 -50 55 -65 113 -51 203 -180 369 -356 458 -88
45 -158 59 -271 54 -80 -3 -104 -9 -163 -36 -38 -18 -90 -48 -115 -66 l-47
-35 -150 45 c-248 74 -601 161 -771 189 l-160 27 -39 -20 c-66 -33 -142 -45
-265 -40 -93 4 -126 10 -180 31 -77 32 -60 31 -224 3z m245 -32 c113 -41 339
-31 435 18 24 13 43 14 95 7 325 -44 1000 -232 1390 -386 308 -122 517 -241
642 -365 56 -56 76 -86 127 -190 64 -133 89 -202 47 -130 -63 107 -208 262
-309 331 -76 52 -224 117 -322 142 -75 20 -115 23 -240 23 -129 -1 -163 -4
-245 -26 -186 -51 -317 -127 -454 -262 -134 -133 -222 -283 -269 -458 -20 -76
-22 -105 -22 -345 0 -144 -3 -264 -6 -267 -3 -3 -28 3 -56 14 -128 48 -203 55
-618 55 -417 0 -505 -8 -626 -55 -28 -12 -54 -18 -58 -15 -6 7 -7 114 -2 355
5 241 -50 413 -188 597 -176 234 -414 373 -691 403 -239 27 -462 -25 -658
-152 -93 -61 -232 -198 -292 -290 -24 -37 -45 -66 -47 -64 -8 8 75 184 112
240 137 206 454 381 1045 574 259 84 374 118 585 171 283 70 515 114 545 103
8 -3 44 -16 80 -28z m-1399 -100 c62 -19 130 -52 177 -87 l32 -24 -137 -48
c-292 -100 -534 -209 -690 -311 -46 -29 -83 -52 -83 -50 0 22 50 156 78 211
45 89 171 216 258 262 117 62 255 80 365 47z m3464 -10 c186 -64 367 -277 410
-481 l6 -32 -68 46 c-133 89 -416 218 -673 307 -74 26 -141 49 -149 51 -11 4
-11 9 3 24 23 25 129 81 185 97 61 18 220 11 286 -12z m57 -490 c320 -86 588
-349 684 -671 36 -119 45 -347 19 -474 -58 -287 -260 -546 -530 -682 -27 -13
-102 -41 -165 -61 -138 -43 -207 -81 -277 -152 -63 -65 -111 -149 -152 -268
-47 -132 -88 -202 -166 -281 -129 -128 -254 -184 -432 -192 -135 -7 -210 6
-311 53 -179 82 -324 255 -367 436 -8 35 -15 108 -15 164 0 237 89 404 294
553 90 66 126 107 161 184 39 84 49 181 35 315 -36 328 57 597 282 821 131
130 259 207 425 252 141 39 378 40 515 3z m-3327 -8 c320 -97 574 -356 666
-681 21 -74 23 -101 24 -355 1 -228 4 -282 17 -316 35 -89 89 -152 195 -228
382 -273 370 -839 -23 -1096 -114 -75 -191 -95 -359 -95 -120 0 -149 3 -206
23 -192 66 -353 228 -415 417 -79 241 -196 371 -386 431 -233 74 -361 148
-493 285 -182 190 -261 376 -272 634 -11 265 62 479 230 676 141 165 325 276
537 325 37 9 112 12 225 10 150 -3 180 -6 260 -30z m-1246 -1194 c43 -165 121
-301 251 -436 133 -138 282 -228 454 -275 106 -29 188 -70 182 -90 -3 -9 -14
-65 -26 -126 -52 -267 -161 -657 -215 -771 -40 -84 -111 -166 -169 -197 -61
-32 -171 -30 -248 5 -172 79 -252 273 -300 728 -20 190 -17 927 5 1189 24 286
30 314 38 171 3 -67 15 -150 28 -198z m5348 77 c22 -250 25 -1061 5 -1269 -48
-479 -166 -699 -393 -725 -143 -17 -260 72 -338 258 -62 151 -221 765 -221
857 0 25 68 60 173 89 278 76 541 299 659 559 41 90 74 227 83 340 4 51 9 91
11 89 2 -2 11 -91 21 -198z"/>
<path d="M2865 2650 c-111 -73 -70 -239 63 -257 105 -14 187 109 138 206 -35
67 -137 93 -201 51z m135 -15 c92 -47 68 -195 -35 -221 -60 -15 -145 52 -145
113 0 38 30 92 59 108 34 19 85 19 121 0z"/>
<path d="M4419 3202 c-83 -22 -153 -67 -227 -147 -80 -85 -87 -148 -23 -209
44 -42 104 -46 156 -10 49 33 138 78 186 93 19 6 77 15 127 20 102 9 124 21
149 80 25 58 -7 137 -64 159 -90 35 -204 40 -304 14z m268 -27 c61 -18 83 -44
83 -98 0 -77 -34 -102 -155 -110 -93 -6 -164 -30 -261 -89 -90 -55 -133 -57
-176 -9 -27 30 -30 39 -25 80 5 41 12 53 74 112 38 36 94 78 124 92 91 45 226
53 336 22z"/>
<path d="M5110 2963 c-37 -11 -62 -29 -80 -59 -31 -49 -26 -87 25 -168 59 -94
85 -171 93 -277 8 -98 26 -133 77 -155 44 -18 59 -18 102 3 49 23 69 62 84
159 15 101 2 198 -38 282 -26 56 -151 197 -181 206 -31 9 -67 13 -82 9z m127
-75 c109 -103 153 -198 154 -329 1 -105 -16 -181 -48 -213 -35 -35 -100 -36
-140 -2 -25 22 -28 32 -34 117 -8 107 -33 182 -91 279 -46 75 -55 108 -38 141
20 40 52 59 98 59 38 0 49 -6 99 -52z"/>
<path d="M4522 2768 c-76 -30 -145 -96 -184 -176 -30 -61 -33 -74 -32 -157 1
-110 21 -162 93 -238 144 -153 371 -151 514 2 72 77 92 127 92 236 0 82 -3 97
-33 157 -36 74 -96 133 -170 170 -68 33 -206 36 -280 6z m271 -28 c76 -38 123
-85 159 -158 29 -59 33 -76 33 -147 0 -102 -31 -171 -110 -243 -67 -61 -124
-82 -224 -82 -95 0 -175 35 -238 102 -54 59 -69 91 -84 169 -29 157 70 325
221 374 67 22 184 15 243 -15z"/>
<path d="M3930 2355 c-83 -38 -130 -112 -130 -205 0 -90 42 -160 122 -201 50
-26 146 -26 197 0 153 78 163 293 20 388 -52 34 -153 43 -209 18z m175 -24
c187 -85 126 -380 -78 -381 -86 0 -154 41 -188 115 -49 105 3 230 111 274 40
16 112 12 155 -8z"/>
<path d="M3636 1667 l-150 -63 -64 -157 -65 -158 65 -155 65 -156 157 -65 157
-66 156 65 156 65 63 153 c35 84 64 157 64 164 -1 6 -29 78 -64 161 l-63 149
-149 63 c-82 34 -156 62 -164 62 -8 0 -82 -28 -164 -62z m315 -18 l147 -61 61
-148 61 -149 -61 -149 -61 -149 -148 -61 -148 -61 -150 61 -149 61 -61 149
-62 148 62 149 61 150 141 59 c78 33 145 60 151 61 5 1 75 -26 156 -60z"/>
<path d="M3699 1490 c-41 -22 -96 -80 -110 -118 -17 -46 -12 -136 10 -180 42
-82 121 -126 217 -120 112 7 194 88 202 198 10 141 -81 241 -220 240 -42 -1
-75 -7 -99 -20z m202 -29 c92 -58 121 -156 76 -254 -83 -182 -359 -139 -375
58 -11 129 74 225 199 225 44 0 64 -6 100 -29z"/>
<path d="M1110 3174 c-127 -27 -284 -124 -379 -235 -167 -196 -205 -501 -91
-734 94 -192 262 -331 460 -381 84 -21 245 -21 330 0 164 41 320 153 419 301
140 209 145 501 14 724 -45 77 -147 182 -223 232 -148 97 -349 132 -530 93z
m366 -39 c251 -84 424 -299 454 -565 25 -221 -52 -421 -222 -574 -63 -57 -165
-117 -245 -142 -78 -25 -256 -30 -347 -10 -188 42 -361 177 -444 346 -56 114
-72 183 -72 310 0 212 80 383 241 517 72 59 198 120 284 138 104 22 252 13
351 -20z"/>
<path d="M1085 2900 l-160 -68 -67 -158 c-37 -88 -67 -166 -68 -174 0 -8 30
-88 67 -176 l66 -161 168 -68 167 -68 167 69 167 69 68 166 68 166 -65 159
c-36 87 -70 164 -76 170 -12 12 -325 145 -336 143 -3 -1 -78 -32 -166 -69z
m487 -88 c9 -10 128 -302 128 -316 0 -6 -28 -80 -62 -163 l-63 -153 -160 -65
-160 -66 -150 62 c-82 34 -155 67 -162 73 -6 6 -39 79 -73 162 l-61 152 65
158 c36 88 69 160 73 162 5 1 76 31 158 66 l150 63 155 -64 c85 -35 158 -67
162 -71z"/>
<path d="M1149 2842 c-158 -53 -253 -183 -251 -346 1 -104 31 -177 101 -246
85 -85 134 -105 256 -105 91 0 105 3 155 29 77 41 153 122 180 193 31 82 25
215 -12 289 -35 66 -130 154 -194 177 -74 27 -168 31 -235 9z m226 -29 c71
-23 164 -117 194 -198 30 -78 26 -185 -10 -260 -30 -64 -100 -134 -164 -165
-74 -36 -198 -35 -276 1 -73 35 -128 85 -165 151 -27 49 -29 61 -29 153 0 89
3 106 27 150 26 50 103 131 149 156 69 38 178 43 274 12z"/>
<path d="M1172 2731 c-100 -35 -162 -123 -162 -233 0 -78 26 -134 87 -188 74
-65 169 -78 258 -36 96 45 145 121 145 223 0 174 -165 291 -328 234z m210 -46
c107 -75 129 -236 45 -332 -36 -40 -117 -83 -160 -83 -126 0 -236 101 -237
219 0 94 44 171 122 210 35 18 57 21 115 19 60 -3 79 -8 115 -33z"/>
<path d="M1162 2649 c-74 -48 -102 -150 -62 -229 84 -164 330 -106 330 78 0
55 -39 122 -86 149 -52 30 -136 31 -182 2z m167 -19 c78 -39 102 -148 50 -221
-77 -109 -254 -67 -276 65 -10 62 34 143 92 167 35 14 95 10 134 -11z"/>
<path d="M1195 2555 c-35 -34 -33 -78 4 -116 38 -38 74 -38 112 0 56 57 23
141 -56 141 -25 0 -44 -8 -60 -25z"/>
<path d="M1972 1688 c-8 -8 -12 -53 -12 -137 l0 -126 -116 2 c-64 1 -125 -2
-135 -8 -17 -8 -19 -22 -19 -103 0 -63 4 -97 13 -104 6 -5 66 -9 135 -8 l122
1 0 -126 c0 -95 3 -129 14 -138 15 -13 161 -12 189 1 15 8 17 25 17 137 l0
129 121 -5 c84 -3 125 -1 135 8 10 8 14 36 14 105 0 118 0 118 -156 112 l-114
-4 0 126 c0 85 -4 130 -12 138 -16 16 -180 16 -196 0z m186 -150 l3 -138 32 0
32 0 -3 -80 c-3 -75 -2 -80 17 -80 26 0 129 50 135 65 7 19 -5 30 -69 64 l-60
31 93 0 92 0 0 -85 0 -85 -135 0 -135 0 0 -135 0 -135 -90 0 -90 0 0 135 0
135 -135 0 -135 0 0 85 0 85 93 0 92 -1 -60 -31 c-63 -32 -76 -44 -69 -63 6
-15 109 -65 135 -65 19 0 20 5 17 80 l-3 80 33 0 32 0 0 133 c0 74 3 137 7
141 4 3 43 5 87 4 l81 -3 3 -137z"/>
<path d="M2020 1560 c-16 -33 -30 -66 -30 -74 0 -16 44 -23 113 -18 57 5 58
11 17 92 -22 43 -36 60 -50 60 -14 0 -28 -17 -50 -60z"/>
<path d="M2023 1375 c-29 -20 -37 -59 -18 -95 27 -53 103 -53 130 1 38 73 -43
142 -112 94z"/>
<path d="M2007 1162 c-9 -2 -17 -10 -17 -18 0 -25 60 -134 74 -134 17 0 39 26
65 77 24 48 27 73 9 74 -45 3 -117 4 -131 1z"/>
</g>
</svg>
